<?xml version="1.0" encoding="UTF-8"?>
<!DOCTYPE svg PUBLIC "-//W3C//DTD SVG 1.1//EN" "http://www.w3.org/Graphics/SVG/1.1/DTD/svg11.dtd">
<svg xmlns:xlink="http://www.w3.org/1999/xlink" xmlns="http://www.w3.org/2000/svg" viewBox="600 100 360 200">
  <g id="scruffy_graph">
    <g transform="translate(0.0, 0.0)" id="background">
      <defs>
        <linearGradient x1="0%" y1="0%" x2="0%" y2="100%" id="BackgroundGradient">
          <stop stop-color="black" offset="5%"/>
          <stop stop-color="#4A465A" offset="95%"/>
        </linearGradient>
      </defs>
      <rect height="360.0" x="0" width="600.0" fill="url(#BackgroundGradient)" y="0"/>
    </g>
    <g transform="translate(30.0, 7.2)" id="title">
      <text font-family="" stroke-width="0" x="270.0" class="title" font-size="25.2" stroke="none" fill="white" y="25.2" text-anchor="middle">Average Reply Rate (Responses per Second)</text>
    </g>
    <g transform="translate(12.0, 93.6)" id="view">
      <g>
        <g transform="translate(0.0, 4.752)" id="values">
          <text font-family="" x="96.12" font-size="16.91712" fill="white" y="211.464" text-anchor="end">0</text>
          <text font-family="" x="96.12" font-size="16.91712" fill="white" y="158.598" text-anchor="end">50</text>
          <text font-family="" x="96.12" font-size="16.91712" fill="white" y="105.732" text-anchor="end">100</text>
          <text font-family="" x="96.12" font-size="16.91712" fill="white" y="52.866" text-anchor="end">150</text>
          <text font-family="" x="96.12" font-size="16.91712" fill="white" y="0.0" text-anchor="end">200</text>
        </g>
        <g transform="translate(106.8, 0.0)" id="grid">
          <line x1="0" y1="0.0" x2="427.2" style="stroke: white; stroke-width: 2;" y2="0.0"/>
          <line x1="0" y1="52.866" x2="427.2" style="stroke: white; stroke-width: 2;" y2="52.866"/>
          <line x1="0" y1="105.732" x2="427.2" style="stroke: white; stroke-width: 2;" y2="105.732"/>
          <line x1="0" y1="158.598" x2="427.2" style="stroke: white; stroke-width: 2;" y2="158.598"/>
          <line x1="0" y1="211.464" x2="427.2" style="stroke: white; stroke-width: 2;" y2="211.464"/>
        </g>
        <g transform="translate(106.8, 218.592)" id="labels">
          <text font-family="" x="0.0" font-size="17.1072" fill="white" y="19.008" text-anchor="middle">20.0</text>
          <text font-family="" x="47.4666666666667" font-size="17.1072" fill="white" y="19.008" text-anchor="middle">40.0</text>
          <text font-family="" x="94.9333333333333" font-size="17.1072" fill="white" y="19.008" text-anchor="middle">60.0</text>
          <text font-family="" x="142.4" font-size="17.1072" fill="white" y="19.008" text-anchor="middle">80.0</text>
          <text font-family="" x="189.866666666667" font-size="17.1072" fill="white" y="19.008" text-anchor="middle">100.0</text>
          <text font-family="" x="237.333333333333" font-size="17.1072" fill="white" y="19.008" text-anchor="middle">120.0</text>
          <text font-family="" x="284.8" font-size="17.1072" fill="white" y="19.008" text-anchor="middle">140.0</text>
          <text font-family="" x="332.266666666667" font-size="17.1072" fill="white" y="19.008" text-anchor="middle">160.0</text>
          <text font-family="" x="379.733333333333" font-size="17.1072" fill="white" y="19.008" text-anchor="middle">180.0</text>
          <text font-family="" x="427.2" font-size="17.1072" fill="white" y="19.008" text-anchor="middle">200.0</text>
        </g>
        <g transform="translate(106.8, 0.0)" id="graphs">
          <g class="graph_layer" id="component_graphs_graph_0">
            <g transform="translate(0, -4.22928)">
              <polygon points="0,211.464 0.0,190.3176 47.4666666666667,169.1712 94.9333333333333,148.0248 142.4,126.8784 189.866666666667,105.732 237.333333333333,84.5856 284.8,63.4392 332.266666666667,42.2928 379.733333333333,21.1464 427.2,0.0 427.2,211.464" style="fill: black; stroke: black; fill-opacity: 0.06; stroke-opacity: 0.06;"/>
            </g>
            <polygon points="0,211.464 0.0,190.3176 47.4666666666667,169.1712 94.9333333333333,148.0248 142.4,126.8784 189.866666666667,105.732 237.333333333333,84.5856 284.8,63.4392 332.266666666667,42.2928 379.733333333333,21.1464 427.2,0.0 427.2,211.464" style="opacity: 1.0" stroke="#6886B4" fill="#6886B4"/>
          </g>
          <g class="graph_layer" id="component_graphs_graph_1">
            <g transform="translate(1.05732, 1.05732)" class="shadow">
              <polyline stroke-width="4.22928" points="0.0,209.772288 47.4666666666667,211.146804 94.9333333333333,209.772288 142.4,211.464 189.866666666667,210.40668 237.333333333333,211.464 284.8,210.40668 332.266666666667,211.464 379.733333333333,210.40668 427.2,211.464" style="fill-opacity: 0; stroke-opacity: 0.35" stroke="black" fill="transparent"/>
              <circle style="stroke-width: 4.22928; stroke: black; opacity: 0.35;" cx="0.0" cy="211.675464" r="4.22928"/>
              <circle style="stroke-width: 4.22928; stroke: black; opacity: 0.35;" cx="47.4666666666667" cy="213.04998" r="4.22928"/>
              <circle style="stroke-width: 4.22928; stroke: black; opacity: 0.35;" cx="94.9333333333333" cy="211.675464" r="4.22928"/>
              <circle style="stroke-width: 4.22928; stroke: black; opacity: 0.35;" cx="142.4" cy="213.367176" r="4.22928"/>
              <circle style="stroke-width: 4.22928; stroke: black; opacity: 0.35;" cx="189.866666666667" cy="212.309856" r="4.22928"/>
              <circle style="stroke-width: 4.22928; stroke: black; opacity: 0.35;" cx="237.333333333333" cy="213.367176" r="4.22928"/>
              <circle style="stroke-width: 4.22928; stroke: black; opacity: 0.35;" cx="284.8" cy="212.309856" r="4.22928"/>
              <circle style="stroke-width: 4.22928; stroke: black; opacity: 0.35;" cx="332.266666666667" cy="213.367176" r="4.22928"/>
              <circle style="stroke-width: 4.22928; stroke: black; opacity: 0.35;" cx="379.733333333333" cy="212.309856" r="4.22928"/>
              <circle style="stroke-width: 4.22928; stroke: black; opacity: 0.35;" cx="427.2" cy="213.367176" r="4.22928"/>
            </g>
            <polyline stroke-width="4.22928" points="0.0,209.772288 47.4666666666667,211.146804 94.9333333333333,209.772288 142.4,211.464 189.866666666667,210.40668 237.333333333333,211.464 284.8,210.40668 332.266666666667,211.464 379.733333333333,210.40668 427.2,211.464" stroke="#FDD84E" fill="none"/>
            <circle style="stroke-width: 4.22928; stroke: #FDD84E; fill: #FDD84E" cx="0.0" cy="209.772288" r="4.22928"/>
            <circle style="stroke-width: 4.22928; stroke: #FDD84E; fill: #FDD84E" cx="47.4666666666667" cy="211.146804" r="4.22928"/>
            <circle style="stroke-width: 4.22928; stroke: #FDD84E; fill: #FDD84E" cx="94.9333333333333" cy="209.772288" r="4.22928"/>
            <circle style="stroke-width: 4.22928; stroke: #FDD84E; fill: #FDD84E" cx="142.4" cy="211.464" r="4.22928"/>
            <circle style="stroke-width: 4.22928; stroke: #FDD84E; fill: #FDD84E" cx="189.866666666667" cy="210.40668" r="4.22928"/>
            <circle style="stroke-width: 4.22928; stroke: #FDD84E; fill: #FDD84E" cx="237.333333333333" cy="211.464" r="4.22928"/>
            <circle style="stroke-width: 4.22928; stroke: #FDD84E; fill: #FDD84E" cx="284.8" cy="210.40668" r="4.22928"/>
            <circle style="stroke-width: 4.22928; stroke: #FDD84E; fill: #FDD84E" cx="332.266666666667" cy="211.464" r="4.22928"/>
            <circle style="stroke-width: 4.22928; stroke: #FDD84E; fill: #FDD84E" cx="379.733333333333" cy="210.40668" r="4.22928"/>
            <circle style="stroke-width: 4.22928; stroke: #FDD84E; fill: #FDD84E" cx="427.2" cy="211.464" r="4.22928"/>
          </g>
        </g>
      </g>
    </g>
    <g transform="translate(30.0, 46.8)" id="legend">
      <rect height="10.8" x="32.4" width="10.8" fill="#6886B4" y="0"/>
      <text font-family="" x="51.84" style="color: white" font-size="15.552" fill="white" y="11.664">Attempted Request Rate</text>
      <rect height="10.8" x="302.4" width="10.8" fill="#FDD84E" y="0"/>
      <text font-family="" x="321.84" style="color: white" font-size="15.552" fill="white" y="11.664">Average Reply Rate</text>
    </g>
  </g>
</svg>
