<?xml version="1.0" encoding="UTF-8"?>
<!DOCTYPE svg PUBLIC "-//W3C//DTD SVG 1.1//EN" "http://www.w3.org/Graphics/SVG/1.1/DTD/svg11.dtd">
<svg xmlns="http://www.w3.org/2000/svg" viewBox="600 100 360 200" xmlns:xlink="http://www.w3.org/1999/xlink">
  <g id="scruffy_graph">
    <g transform="translate(0.0, 0.0)" id="background">
      <defs>
        <linearGradient x1="0%" y1="0%" x2="0%" y2="100%" id="BackgroundGradient">
          <stop stop-color="black" offset="5%"/>
          <stop stop-color="#4A465A" offset="95%"/>
        </linearGradient>
      </defs>
      <rect height="360.0" x="0" width="600.0" fill="url(#BackgroundGradient)" y="0"/>
    </g>
    <g transform="translate(30.0, 7.2)" id="title">
      <text x="270.0" text-anchor="middle" class="title" stroke-width="0" font-size="25.2" stroke="none" font-family="" fill="white" y="25.2">Errors (in percent)</text>
    </g>
    <g transform="translate(12.0, 93.6)" id="view">
      <g>
        <g transform="translate(0.0, 4.752)" id="values">
          <text x="96.12" text-anchor="end" font-size="16.91712" font-family="" fill="white" y="211.464">0</text>
          <text x="96.12" text-anchor="end" font-size="16.91712" font-family="" fill="white" y="158.598">25</text>
          <text x="96.12" text-anchor="end" font-size="16.91712" font-family="" fill="white" y="105.732">50</text>
          <text x="96.12" text-anchor="end" font-size="16.91712" font-family="" fill="white" y="52.866">75</text>
          <text x="96.12" text-anchor="end" font-size="16.91712" font-family="" fill="white" y="0.0">100</text>
        </g>
        <g transform="translate(106.8, 0.0)" id="grid">
          <line x1="0" y1="0.0" x2="427.2" style="stroke: white; stroke-width: 2;" y2="0.0"/>
          <line x1="0" y1="52.866" x2="427.2" style="stroke: white; stroke-width: 2;" y2="52.866"/>
          <line x1="0" y1="105.732" x2="427.2" style="stroke: white; stroke-width: 2;" y2="105.732"/>
          <line x1="0" y1="158.598" x2="427.2" style="stroke: white; stroke-width: 2;" y2="158.598"/>
          <line x1="0" y1="211.464" x2="427.2" style="stroke: white; stroke-width: 2;" y2="211.464"/>
        </g>
        <g transform="translate(106.8, 218.592)" id="labels">
          <text x="0.0" text-anchor="middle" font-size="17.1072" font-family="" fill="white" y="19.008">20.0</text>
          <text x="47.4666666666667" text-anchor="middle" font-size="17.1072" font-family="" fill="white" y="19.008">40.0</text>
          <text x="94.9333333333333" text-anchor="middle" font-size="17.1072" font-family="" fill="white" y="19.008">60.0</text>
          <text x="142.4" text-anchor="middle" font-size="17.1072" font-family="" fill="white" y="19.008">80.0</text>
          <text x="189.866666666667" text-anchor="middle" font-size="17.1072" font-family="" fill="white" y="19.008">100.0</text>
          <text x="237.333333333333" text-anchor="middle" font-size="17.1072" font-family="" fill="white" y="19.008">120.0</text>
          <text x="284.8" text-anchor="middle" font-size="17.1072" font-family="" fill="white" y="19.008">140.0</text>
          <text x="332.266666666667" text-anchor="middle" font-size="17.1072" font-family="" fill="white" y="19.008">160.0</text>
          <text x="379.733333333333" text-anchor="middle" font-size="17.1072" font-family="" fill="white" y="19.008">180.0</text>
          <text x="427.2" text-anchor="middle" font-size="17.1072" font-family="" fill="white" y="19.008">200.0</text>
        </g>
        <g transform="translate(106.8, 0.0)" id="graphs">
          <g class="graph_layer" id="component_graphs_graph_0">
            <g transform="translate(1.05732, 1.05732)" class="shadow">
              <polyline points="0.0,0.0 47.4666666666667,0.0 94.9333333333333,0.0 142.4,0.0 189.866666666667,0.0 237.333333333333,0.0 284.8,0.0 332.266666666667,0.0 379.733333333333,0.0 427.2,0.0" stroke-width="4.22928" style="fill-opacity: 0; stroke-opacity: 0.35" stroke="black" fill="transparent"/>
              <circle style="stroke-width: 4.22928; stroke: black; opacity: 0.35;" cx="0.0" cy="1.903176" r="4.22928"/>
              <circle style="stroke-width: 4.22928; stroke: black; opacity: 0.35;" cx="47.4666666666667" cy="1.903176" r="4.22928"/>
              <circle style="stroke-width: 4.22928; stroke: black; opacity: 0.35;" cx="94.9333333333333" cy="1.903176" r="4.22928"/>
              <circle style="stroke-width: 4.22928; stroke: black; opacity: 0.35;" cx="142.4" cy="1.903176" r="4.22928"/>
              <circle style="stroke-width: 4.22928; stroke: black; opacity: 0.35;" cx="189.866666666667" cy="1.903176" r="4.22928"/>
              <circle style="stroke-width: 4.22928; stroke: black; opacity: 0.35;" cx="237.333333333333" cy="1.903176" r="4.22928"/>
              <circle style="stroke-width: 4.22928; stroke: black; opacity: 0.35;" cx="284.8" cy="1.903176" r="4.22928"/>
              <circle style="stroke-width: 4.22928; stroke: black; opacity: 0.35;" cx="332.266666666667" cy="1.903176" r="4.22928"/>
              <circle style="stroke-width: 4.22928; stroke: black; opacity: 0.35;" cx="379.733333333333" cy="1.903176" r="4.22928"/>
              <circle style="stroke-width: 4.22928; stroke: black; opacity: 0.35;" cx="427.2" cy="1.903176" r="4.22928"/>
            </g>
            <polyline points="0.0,0.0 47.4666666666667,0.0 94.9333333333333,0.0 142.4,0.0 189.866666666667,0.0 237.333333333333,0.0 284.8,0.0 332.266666666667,0.0 379.733333333333,0.0 427.2,0.0" stroke-width="4.22928" stroke="#6886B4" fill="none"/>
            <circle style="stroke-width: 4.22928; stroke: #6886B4; fill: #6886B4" cx="0.0" cy="0.0" r="4.22928"/>
            <circle style="stroke-width: 4.22928; stroke: #6886B4; fill: #6886B4" cx="47.4666666666667" cy="0.0" r="4.22928"/>
            <circle style="stroke-width: 4.22928; stroke: #6886B4; fill: #6886B4" cx="94.9333333333333" cy="0.0" r="4.22928"/>
            <circle style="stroke-width: 4.22928; stroke: #6886B4; fill: #6886B4" cx="142.4" cy="0.0" r="4.22928"/>
            <circle style="stroke-width: 4.22928; stroke: #6886B4; fill: #6886B4" cx="189.866666666667" cy="0.0" r="4.22928"/>
            <circle style="stroke-width: 4.22928; stroke: #6886B4; fill: #6886B4" cx="237.333333333333" cy="0.0" r="4.22928"/>
            <circle style="stroke-width: 4.22928; stroke: #6886B4; fill: #6886B4" cx="284.8" cy="0.0" r="4.22928"/>
            <circle style="stroke-width: 4.22928; stroke: #6886B4; fill: #6886B4" cx="332.266666666667" cy="0.0" r="4.22928"/>
            <circle style="stroke-width: 4.22928; stroke: #6886B4; fill: #6886B4" cx="379.733333333333" cy="0.0" r="4.22928"/>
            <circle style="stroke-width: 4.22928; stroke: #6886B4; fill: #6886B4" cx="427.2" cy="0.0" r="4.22928"/>
          </g>
        </g>
      </g>
    </g>
    <g transform="translate(30.0, 46.8)" id="legend">
      <rect height="10.8" x="232.2" width="10.8" fill="#6886B4" y="0"/>
      <text x="251.64" style="color: white" font-size="15.552" font-family="" fill="white" y="11.664">Errors</text>
    </g>
  </g>
</svg>
